<?xml version="1.0" standalone="no"?>
<!DOCTYPE svg PUBLIC "-//W3C//DTD SVG 20010904//EN"
 "http://www.w3.org/TR/2001/REC-SVG-20010904/DTD/svg10.dtd">
<svg version="1.0" xmlns="http://www.w3.org/2000/svg"
 width="578.000000pt" height="800.000000pt" viewBox="0 0 578.000000 800.000000"
 preserveAspectRatio="xMidYMid meet">

<g transform="translate(0.000000,800.000000) scale(0.100000,-0.100000)"
fill="#000000" stroke="none">
<path d="M1225 6826 c-38 -17 -77 -61 -147 -167 -289 -440 -1000 -1549 -1027
-1603 -29 -56 -36 -81 -39 -142 -4 -65 -1 -81 26 -136 16 -35 415 -616 887
-1293 693 -993 858 -1236 857 -1260 0 -16 -64 -453 -141 -970 -174 -1167 -183
-1236 -178 -1242 3 -2 695 -5 1538 -6 l1534 -2 5 965 5 965 439 885 c241 487
451 923 467 970 43 129 60 252 66 488 l6 213 -150 -153 c-126 -130 -758 -783
-844 -872 l-27 -29 -288 149 c-397 204 -565 286 -571 280 -3 -3 -43 -207 -89
-453 -104 -556 -163 -862 -171 -888 -4 -13 -16 21 -33 95 -84 361 -190 659
-340 955 -136 269 -281 483 -462 682 -246 270 -575 509 -908 658 -47 21 -86
39 -88 40 -3 3 254 501 264 514 2 2 54 -19 116 -47 208 -92 349 -126 528 -125
97 0 142 5 203 21 149 42 292 133 385 245 59 72 121 199 134 278 21 121 103
71 -890 548 -482 231 -897 427 -921 436 -53 18 -106 19 -146 1z m1635 -4854
c275 -110 410 -137 650 -128 91 3 215 14 275 24 61 11 111 19 112 18 3 -3
-130 -101 -312 -229 -77 -54 -143 -106 -148 -115 -4 -9 -54 -296 -112 -636
-58 -341 -107 -622 -110 -624 -3 -3 -5 15 -5 39 0 55 -47 1051 -56 1174 l-6
90 -221 224 c-122 123 -215 221 -207 218 8 -3 71 -27 140 -55z"/>
<path d="M4352 6593 c-16 -21 -277 -377 -581 -792 -367 -501 -551 -761 -551
-777 0 -34 36 -87 121 -178 151 -162 360 -337 487 -406 32 -18 48 -22 66 -14
18 7 560 601 1205 1322 104 117 106 124 62 215 -87 177 -457 530 -668 637 -79
40 -104 39 -141 -7z"/>
<path d="M5191 5598 c-86 -90 -1167 -1282 -1175 -1295 -13 -24 20 -96 85 -182
111 -147 324 -331 384 -331 14 0 232 189 653 566 733 657 667 573 582 741 -59
118 -153 244 -277 373 -97 102 -151 145 -194 155 -21 5 -33 0 -58 -27z"/>
</g>
</svg>
