<?xml version="1.0" standalone="no"?>
<!DOCTYPE svg PUBLIC "-//W3C//DTD SVG 20010904//EN"
 "http://www.w3.org/TR/2001/REC-SVG-20010904/DTD/svg10.dtd">
<svg version="1.0" xmlns="http://www.w3.org/2000/svg"
 width="243.000000pt" height="232.000000pt" viewBox="0 0 243.000000 232.000000"
 preserveAspectRatio="xMidYMid meet">

<g transform="translate(0.000000,232.000000) scale(0.100000,-0.100000)"
fill="#000000" stroke="none">
<path d="M1081 2294 c-118 -32 -224 -118 -277 -227 -15 -31 -38 -60 -51 -66
-30 -14 -63 -68 -63 -104 0 -39 25 -93 49 -109 20 -12 21 -20 21 -290 0 -273
0 -277 -22 -303 -14 -15 -38 -28 -60 -32 -33 -5 -41 -2 -73 30 l-35 35 0 236
c0 261 -4 283 -63 344 -50 52 -102 75 -172 75 -70 0 -122 -23 -172 -75 -78
-81 -84 -198 -9 -198 31 0 52 19 65 61 13 41 43 73 85 89 39 14 88 -2 121 -41
l25 -31 0 -213 c0 -267 7 -303 69 -365 78 -78 178 -88 269 -26 84 57 87 69 90
396 l3 285 31 32 c25 26 32 43 36 86 4 46 1 57 -21 83 -25 29 -25 29 -7 64 49
94 153 154 265 153 106 0 200 -52 250 -137 l27 -46 -20 -25 c-43 -55 -40 -124
9 -176 l29 -31 0 -260 c0 -158 4 -277 11 -303 7 -27 28 -63 51 -90 98 -112
275 -88 342 46 26 53 26 54 26 284 0 225 1 233 23 266 58 86 190 61 214 -40
14 -62 78 -83 108 -37 14 20 14 32 5 68 -56 212 -333 249 -440 58 -24 -44 -25
-50 -28 -280 -1 -129 -5 -245 -7 -258 -6 -26 -60 -62 -94 -62 -13 0 -38 15
-57 34 l-34 34 0 267 0 268 35 38 c30 34 35 46 35 91 0 48 -3 54 -45 94 -24
24 -56 66 -71 95 -54 107 -173 196 -293 219 -71 13 -114 12 -180 -6z m-211
-354 c29 -29 26 -74 -6 -99 -35 -27 -59 -26 -89 4 -30 30 -31 54 -4 89 25 32
70 35 99 6z m720 0 c29 -29 26 -74 -6 -99 -35 -27 -59 -26 -89 4 -30 30 -31
54 -4 89 25 32 70 35 99 6z"/>
<path d="M122 1394 c-22 -15 -22 -17 -22 -288 l0 -272 26 -53 c78 -156 299
-173 399 -30 50 71 62 176 23 203 -12 9 -30 16 -39 16 -27 0 -59 -48 -59 -89
0 -84 -92 -136 -170 -96 -59 31 -60 35 -60 318 l0 258 -25 24 c-28 29 -42 31
-73 9z"/>
<path d="M2171 1393 c-20 -17 -21 -28 -23 -286 l-3 -269 -37 -34 c-28 -26 -47
-34 -74 -34 -70 0 -124 56 -124 129 0 35 -30 71 -60 71 -11 0 -30 -10 -41 -21
-39 -39 -12 -156 50 -222 89 -97 251 -97 343 0 58 61 62 84 66 370 l3 262 -25
26 c-30 30 -46 31 -75 8z"/>
<path d="M1022 1124 l-22 -15 0 -441 c0 -384 -2 -444 -15 -458 -62 -69 13
-179 102 -149 58 19 81 93 43 142 -19 24 -20 40 -20 466 l0 440 -22 15 c-12 9
-27 16 -33 16 -6 0 -21 -7 -33 -16z"/>
<path d="M1270 1120 c-19 -19 -20 -33 -20 -453 0 -416 -1 -434 -20 -472 -30
-59 -10 -114 49 -136 31 -12 86 6 106 34 19 28 19 91 0 107 -13 11 -15 73 -15
452 l0 439 -25 24 c-29 30 -49 31 -75 5z"/>
<path d="M776 968 c-14 -19 -16 -64 -16 -294 0 -258 -1 -273 -20 -297 -28 -35
-79 -44 -118 -21 -36 21 -52 52 -52 99 0 36 -28 75 -54 75 -8 0 -24 -9 -37
-19 -21 -17 -24 -27 -22 -76 2 -71 38 -134 95 -172 56 -37 148 -44 205 -15 51
27 99 81 112 129 7 22 11 151 11 309 0 250 -1 272 -18 287 -26 24 -68 21 -86
-5z"/>
<path d="M1499 969 c-20 -20 -21 -28 -17 -302 3 -279 3 -282 28 -327 38 -67
96 -103 174 -108 74 -5 125 16 174 72 53 60 70 168 32 206 -26 26 -46 25 -75
-5 -18 -17 -25 -35 -25 -63 0 -73 -65 -119 -131 -92 -56 24 -59 42 -59 338 0
248 -1 270 -18 285 -25 23 -58 21 -83 -4z"/>
</g>
</svg>
